<svg width="166" height="166" viewBox="0 0 166 166" fill="none" xmlns="http://www.w3.org/2000/svg">
<path fill-rule="evenodd" clip-rule="evenodd" d="M92.6363 31.7509C64.3322 26.4289 37.0729 45.0596 31.7509 73.3637C26.4289 101.668 45.0596 128.927 73.3636 134.249C101.668 139.571 128.927 120.94 134.249 92.6363C139.571 64.3322 120.94 37.0729 92.6363 31.7509ZM94.2916 32.9463C67.3738 27.885 41.4496 45.6031 36.3882 72.521C31.3269 99.4388 49.0451 125.363 75.9629 130.424C102.881 135.486 128.805 117.768 133.866 90.8497C138.928 63.9319 121.209 38.0076 94.2916 32.9463Z" fill="#78D4FF"/>
<path fill-rule="evenodd" clip-rule="evenodd" d="M73.5575 27.9866C73.5575 25.2251 75.796 22.9866 78.5575 22.9866H90.8394C93.6009 22.9866 95.8394 25.2251 95.8394 27.9866V28.8502H88.0213V37.3631C110.571 38.8444 128.403 57.6041 128.403 80.5287C128.403 104.42 109.035 123.788 85.1431 123.788C61.2514 123.788 41.8833 104.42 41.8833 80.5287C41.8833 57.7731 59.453 39.1213 81.7668 37.3987V28.8502H73.5575V27.9866ZM113.736 85.6005C113.736 104.947 98.052 120.631 78.7052 120.631C59.3585 120.631 43.6748 104.947 43.6748 85.6005C43.6748 66.2538 59.3585 50.5701 78.7052 50.5701C98.052 50.5701 113.736 66.2538 113.736 85.6005Z" fill="#BFBFBF"/>
<path d="M32.5257 103.835V101.933H41.4853V103.835H38.1454V112.843H35.8656V103.835H32.5257ZM42.6781 112.843V104.661H44.9473V112.843H42.6781ZM43.8181 103.606C43.4807 103.606 43.1913 103.494 42.9498 103.27C42.7119 103.043 42.5929 102.772 42.5929 102.455C42.5929 102.143 42.7119 101.875 42.9498 101.651C43.1913 101.424 43.4807 101.31 43.8181 101.31C44.1554 101.31 44.4431 101.424 44.681 101.651C44.9225 101.875 45.0432 102.143 45.0432 102.455C45.0432 102.772 44.9225 103.043 44.681 103.27C44.4431 103.494 44.1554 103.606 43.8181 103.606ZM46.5251 112.843V104.661H48.6877V106.104H48.7836C48.954 105.625 49.2381 105.247 49.6358 104.97C50.0336 104.693 50.5094 104.554 51.0634 104.554C51.6245 104.554 52.1021 104.694 52.4963 104.975C52.8905 105.252 53.1533 105.628 53.2846 106.104H53.3699C53.5368 105.635 53.8386 105.261 54.2754 104.98C54.7158 104.696 55.236 104.554 55.8361 104.554C56.5996 104.554 57.2193 104.797 57.6952 105.284C58.1746 105.767 58.4143 106.452 58.4143 107.34V112.843H56.1504V107.787C56.1504 107.333 56.0297 106.992 55.7882 106.765C55.5467 106.537 55.2449 106.424 54.8827 106.424C54.4707 106.424 54.1493 106.555 53.9185 106.818C53.6877 107.077 53.5723 107.42 53.5723 107.846V112.843H51.3724V107.74C51.3724 107.338 51.2569 107.019 51.0261 106.781C50.7988 106.543 50.4988 106.424 50.1259 106.424C49.8738 106.424 49.6465 106.488 49.4441 106.616C49.2452 106.74 49.0872 106.916 48.97 107.143C48.8528 107.367 48.7942 107.629 48.7942 107.931V112.843H46.5251ZM63.6954 113.002C62.8538 113.002 62.1293 112.832 61.5221 112.491C60.9184 112.147 60.4532 111.66 60.1265 111.031C59.7998 110.399 59.6364 109.652 59.6364 108.789C59.6364 107.947 59.7998 107.209 60.1265 106.573C60.4532 105.937 60.9131 105.442 61.5061 105.087C62.1027 104.732 62.8023 104.554 63.6048 104.554C64.1446 104.554 64.6471 104.641 65.1123 104.815C65.581 104.986 65.9894 105.243 66.3374 105.588C66.689 105.932 66.9624 106.365 67.1577 106.887C67.3531 107.406 67.4507 108.013 67.4507 108.709V109.332H60.542V107.926H65.3147C65.3147 107.599 65.2437 107.31 65.1016 107.058C64.9596 106.806 64.7625 106.609 64.5104 106.466C64.2618 106.321 63.9724 106.248 63.6421 106.248C63.2977 106.248 62.9923 106.328 62.7259 106.488C62.4631 106.644 62.2572 106.855 62.108 107.122C61.9589 107.384 61.8825 107.677 61.879 108.001V109.338C61.879 109.742 61.9536 110.092 62.1027 110.387C62.2554 110.682 62.4702 110.909 62.7472 111.069C63.0242 111.229 63.3527 111.308 63.7327 111.308C63.9848 111.308 64.2156 111.273 64.4251 111.202C64.6347 111.131 64.814 111.024 64.9631 110.882C65.1123 110.74 65.2259 110.566 65.3041 110.36L67.4028 110.499C67.2962 111.003 67.0778 111.443 66.7476 111.82C66.4209 112.193 65.9983 112.484 65.4798 112.693C64.9649 112.899 64.3701 113.002 63.6954 113.002ZM70.2469 112.843L68.0204 104.661H70.3162L71.5839 110.158H71.6585L72.9795 104.661H75.2327L76.5751 110.126H76.6443L77.8908 104.661H80.1812L77.96 112.843H75.5577L74.1514 107.697H74.0502L72.644 112.843H70.2469ZM84.6434 113.002C83.816 113.002 83.1004 112.827 82.4967 112.475C81.8966 112.12 81.4332 111.626 81.1065 110.994C80.7798 110.359 80.6164 109.622 80.6164 108.784C80.6164 107.938 80.7798 107.2 81.1065 106.568C81.4332 105.932 81.8966 105.438 82.4967 105.087C83.1004 104.732 83.816 104.554 84.6434 104.554C85.4708 104.554 86.1846 104.732 86.7847 105.087C87.3884 105.438 87.8536 105.932 88.1803 106.568C88.507 107.2 88.6704 107.938 88.6704 108.784C88.6704 109.622 88.507 110.359 88.1803 110.994C87.8536 111.626 87.3884 112.12 86.7847 112.475C86.1846 112.827 85.4708 113.002 84.6434 113.002ZM84.654 111.245C85.0305 111.245 85.3447 111.138 85.5969 110.925C85.849 110.708 86.039 110.414 86.1668 110.041C86.2982 109.668 86.3639 109.243 86.3639 108.768C86.3639 108.292 86.2982 107.867 86.1668 107.495C86.039 107.122 85.849 106.827 85.5969 106.61C85.3447 106.394 85.0305 106.285 84.654 106.285C84.2741 106.285 83.9545 106.394 83.6952 106.61C83.4396 106.827 83.246 107.122 83.1146 107.495C82.9868 107.867 82.9229 108.292 82.9229 108.768C82.9229 109.243 82.9868 109.668 83.1146 110.041C83.246 110.414 83.4396 110.708 83.6952 110.925C83.9545 111.138 84.2741 111.245 84.654 111.245ZM89.9059 112.843V104.661H92.1058V106.088H92.191C92.3402 105.58 92.5905 105.197 92.9421 104.938C93.2937 104.675 93.6985 104.544 94.1566 104.544C94.2702 104.544 94.3927 104.551 94.5241 104.565C94.6555 104.579 94.7709 104.599 94.8704 104.623V106.637C94.7638 106.605 94.6165 106.577 94.4282 106.552C94.24 106.527 94.0678 106.514 93.9116 106.514C93.5778 106.514 93.2795 106.587 93.0167 106.733C92.7574 106.875 92.5515 107.074 92.3988 107.329C92.2496 107.585 92.1751 107.88 92.1751 108.214V112.843H89.9059ZM97.8597 110.488L97.865 107.766H98.1953L100.816 104.661H103.421L99.8998 108.773H99.3618L97.8597 110.488ZM95.8036 112.843V101.933H98.0727V112.843H95.8036ZM100.917 112.843L98.5095 109.279L100.022 107.676L103.575 112.843H100.917Z" fill="#02598A"/>
<path fill-rule="evenodd" clip-rule="evenodd" d="M82.7092 97.26L128.91 38.7305L79.0179 86.2189L58.4574 74.1775L80.7102 99.3054L82.5274 97.0942L82.7092 97.26Z" fill="#0069A7"/>
</svg>
